0
SECTION
2
HEADER
9
$ACADVER
1
AC1009
9
$INSUNITS
70
4
0
ENDSEC
0
SECTION
2
ENTITIES
0
LINE
8
SILKSCREEN
10
-5.550000
20
-3.500000
30
0.0
11
2.550000
21
-3.500000
31
0.0
0
ARC
8
SILKSCREEN
10
2.550000
20
-2.550000
30
0.0
40
0.950000
50
270.000000
51
360.000000
0
LINE
8
SILKSCREEN
10
3.500000
20
-2.550000
30
0.0
11
3.500000
21
5.550000
31
0.0
0
ARC
8
SILKSCREEN
10
2.550000
20
5.550000
30
0.0
40
0.950000
50
0.000000
51
90.000000
0
LINE
8
SILKSCREEN
10
2.550000
20
6.500000
30
0.0
11
-5.550000
21
6.500000
31
0.0
0
ARC
8
SILKSCREEN
10
-5.550000
20
5.550000
30
0.0
40
0.950000
50
90.000000
51
180.000000
0
LINE
8
SILKSCREEN
10
-6.500000
20
5.550000
30
0.0
11
-6.500000
21
-2.550000
31
0.0
0
ARC
8
SILKSCREEN
10
-5.550000
20
-2.550000
30
0.0
40
0.950000
50
180.000000
51
270.000000
0
LINE
8
SILKSCREEN
10
-2.550000
20
-6.500000
30
0.0
11
5.550000
21
-6.500000
31
0.0
0
ARC
8
SILKSCREEN
10
5.550000
20
-5.550000
30
0.0
40
0.950000
50
270.000000
51
360.000000
0
LINE
8
SILKSCREEN
10
6.500000
20
-5.550000
30
0.0
11
6.500000
21
2.550000
31
0.0
0
ARC
8
SILKSCREEN
10
5.550000
20
2.550000
30
0.0
40
0.950000
50
0.000000
51
90.000000
0
LINE
8
SILKSCREEN
10
5.550000
20
3.500000
30
0.0
11
-2.550000
21
3.500000
31
0.0
0
ARC
8
SILKSCREEN
10
-2.550000
20
2.550000
30
0.0
40
0.950000
50
90.000000
51
180.000000
0
LINE
8
SILKSCREEN
10
-3.500000
20
2.550000
30
0.0
11
-3.500000
21
-5.550000
31
0.0
0
ARC
8
SILKSCREEN
10
-2.550000
20
-5.550000
30
0.0
40
0.950000
50
180.000000
51
270.000000
0
ENDSEC
0
EOF
