0
SECTION
2
HEADER
9
$ACADVER
1
AC1009
9
$INSUNITS
70
4
0
ENDSEC
0
SECTION
2
ENTITIES
0
POLYLINE
8
SILKSCREEN
62
7
66
1
70
1
10
0.0
20
0.0
30
0.0
0
VERTEX
8
SILKSCREEN
10
-5.550000
20
-3.500000
30
0.0
0
VERTEX
8
SILKSCREEN
10
-3.500000
20
-3.500000
30
0.0
0
VERTEX
8
SILKSCREEN
10
-3.500000
20
2.550000
30
0.0
42
-0.41421356
0
VERTEX
8
SILKSCREEN
10
-2.550000
20
3.500000
30
0.0
0
VERTEX
8
SILKSCREEN
10
3.500000
20
3.500000
30
0.0
0
VERTEX
8
SILKSCREEN
10
3.500000
20
5.550000
30
0.0
42
0.41421356
0
VERTEX
8
SILKSCREEN
10
2.550000
20
6.500000
30
0.0
0
VERTEX
8
SILKSCREEN
10
-5.550000
20
6.500000
30
0.0
42
0.41421356
0
VERTEX
8
SILKSCREEN
10
-6.500000
20
5.550000
30
0.0
0
VERTEX
8
SILKSCREEN
10
-6.500000
20
-2.550000
30
0.0
42
0.41421356
0
SEQEND
8
SILKSCREEN
0
POLYLINE
8
SILKSCREEN
62
7
66
1
70
1
10
0.0
20
0.0
30
0.0
0
VERTEX
8
SILKSCREEN
10
5.550000
20
3.500000
30
0.0
0
VERTEX
8
SILKSCREEN
10
3.500000
20
3.500000
30
0.0
0
VERTEX
8
SILKSCREEN
10
3.500000
20
-2.550000
30
0.0
42
-0.41421356
0
VERTEX
8
SILKSCREEN
10
2.550000
20
-3.500000
30
0.0
0
VERTEX
8
SILKSCREEN
10
-3.500000
20
-3.500000
30
0.0
0
VERTEX
8
SILKSCREEN
10
-3.500000
20
-5.550000
30
0.0
42
0.41421356
0
VERTEX
8
SILKSCREEN
10
-2.550000
20
-6.500000
30
0.0
0
VERTEX
8
SILKSCREEN
10
5.550000
20
-6.500000
30
0.0
42
0.41421356
0
VERTEX
8
SILKSCREEN
10
6.500000
20
-5.550000
30
0.0
0
VERTEX
8
SILKSCREEN
10
6.500000
20
2.550000
30
0.0
42
0.41421356
0
SEQEND
8
SILKSCREEN
0
ENDSEC
0
EOF
